<?xml version="1.0" encoding="UTF-8"?>
<svg id="Layer_1" xmlns="http://www.w3.org/2000/svg" viewBox="0 0 900 900">
  <defs>
    <style>
      .cls-1 {
        fill: #f3dd21;
      }
    </style>
  </defs>
  <path class="cls-1" d="M520.23,399.59c0-60.17.65-120.35-.26-180.51-.49-32.8,11.2-60.52,31.19-84.97,43.01-52.62,99.9-81.28,166.16-91.84,29-4.62,58.1-3.24,86.17,7,54.51,19.88,75.26,68.64,51.78,121.83-16.84,38.14-45.42,65.82-80.01,87.58-44.18,27.79-92.2,43.15-144.9,42.4-6.39-.09-14.59-4.53-18.64-.05-4.19,4.63-1.37,13.14-1.38,19.94-.09,85.62-1.16,171.25.18,256.84,2.31,147.48-110.87,261.54-243.67,278.88-109.78,14.34-201.59-20.02-272.51-105.6-39.44-47.59-58.13-103.77-58.72-165.35-.77-80.45-.43-160.92-.09-241.37.12-29.89,13.56-55.08,31.99-77.41,40.31-48.84,93.14-76.66,154.56-88.86,30.67-6.1,61.27-5.76,91.58,3.46,59.22,18.02,82.72,72.38,55.07,127.9-24.67,49.53-65.96,80.64-114.86,102.9-34.39,15.65-70.68,23.38-108.64,22.8-6.15-.09-14.07-4.62-17.82-.61-4.7,5.04-1.67,13.75-1.67,20.84-.05,44.35-1.16,88.75.59,133.04,2.96,74.77,40.5,129.42,107.03,160.56,78.07,36.54,153.83,27.79,221.47-27.16,45.06-36.6,65.58-85.79,65.43-143.78-.15-59.48-.03-118.97-.03-178.45ZM296.76,214.88c-2.24.17-6.41.12-10.44.85-75.24,13.45-137.58,50.03-188.84,106.06-9.26,10.12-16.53,21.87-20.2,35.39-4.96,18.25,2.91,31.08,21.3,35.27,13.69,3.11,27.31,1.76,40.78-.93,45.79-9.16,86.55-29.64,124.37-56.35,26.19-18.5,50.73-38.94,66.74-67.42,18.43-32.77,5.94-53.13-33.71-52.86ZM599.55,260.34c14.09-1.26,25.66-2.54,36.99-5.56,52.68-14.05,98.83-40.25,139.82-75.74,17.72-15.34,33.88-32.22,43.21-54.35,9.73-23.08,1.53-38.1-22.9-42.63-13.49-2.5-26.74-.71-39.84,2.08-48.15,10.27-90.64,32.66-129.79,61.83-22.7,16.91-43.71,35.68-58,60.6-18.43,32.15-7.78,51.68,28.89,53.75,1.37.08,2.74,0,1.62,0Z"/>
  <path class="cls-1" d="M727.51,544.75c-14.18,0-26.2-.25-38.2.09-7.66.22-6.38-5.16-5.68-9.07.78-4.38-4.49-12.32,5.35-12.41,26.66-.23,53.33-.08,82.91-.08-17.26,20.48-32.79,38.89-49.81,59.08,13.54,0,25.65.59,37.67-.19,9.16-.59,7.82,5.01,7.74,10.38-.08,5.21,1.77,10.76-7.59,10.54-26.06-.62-52.15-.21-81.23-.21,16.79-19.98,32.16-38.27,48.85-58.13Z"/>
  <path class="cls-1" d="M725.17,338.77c11.68,0,23.37.19,35.05-.09,5.05-.12,7.42.96,7.28,6.72-.37,14.42-.51,28.88.04,43.29.29,7.58-3.9,7.33-9.04,7.18-4.73-.15-9.95,1.23-9.31-6.78.55-6.83-.19-13.75.19-20.6.31-5.55-1.18-7.86-7.27-7.86-5.88,0-8.05,1.8-7.43,7.62.39,3.74.07,7.55.07,11.33,0,11.21-1.69,12.42-13.25,10.85-3.48-.47-4.82-1.72-4.75-5.11.11-5.15-.26-10.33.08-15.46.39-5.97-.43-9.31-8.01-9.31-7.48,0-7.35,3.76-7.17,8.91.19,5.49-.53,11.07.16,16.48,1.15,8.9-2.51,11.14-10.86,10.54-5.51-.4-7.91-1.32-7.73-7.47.42-14.42.37-28.87.02-43.29-.13-5.37,1.37-7.23,6.88-7.05,11.67.37,23.36.11,35.05.11Z"/>
  <path class="cls-1" d="M767.48,764.78c0,11.31-.36,22.65.13,33.94.32,7.25-4.11,6.67-8.58,6.28-4.13-.36-10.57,2.6-9.75-5.98.06-.68.02-1.37,0-2.06q-.43-20.76-21.67-20.76c-11.66,0-23.36-.59-34.96.2-8.18.56-10.37-2.52-9.27-9.85.3-2.01.26-4.14-.01-6.16-.76-5.56,1.75-7,7-6.91,16.8.27,33.61-.17,50.4.24,6.47.16,9.58-1.35,8.6-8.37-.47-3.36.36-6.92-.17-10.26-1.38-8.72,2.13-11.02,10.63-10.69,6.7.26,7.99,2.54,7.76,8.49-.41,10.61-.11,21.25-.12,31.88Z"/>
</svg>